<?xml version="1.0" encoding="UTF-8"?>
<svg version="1.1" xmlns="http://www.w3.org/2000/svg" width="512" height="512">
<path d="M0 0 C0.66 0 1.32 0 2 0 C2.35191406 0.65484375 2.70382813 1.3096875 3.06640625 1.984375 C7.84163775 10.81169589 12.86126966 19.47979093 18.0625 28.0625 C20.0445941 31.35206608 21.93170293 34.67410048 23.75390625 38.0546875 C25.93622213 42.07385612 28.16059617 46.0643266 30.4296875 50.03515625 C30.996875 51.02837891 31.5640625 52.02160156 32.1484375 53.04492188 C33.3204147 55.09323045 34.49498335 57.14005803 35.671875 59.18554688 C36.23132813 60.16716797 36.79078125 61.14878906 37.3671875 62.16015625 C37.87362793 63.04324463 38.38006836 63.92633301 38.90185547 64.83618164 C40 67 40 67 40 69 C40.66 69 41.32 69 42 69 C42.54269531 70.11890625 43.08539063 71.2378125 43.64453125 72.390625 C46.54194042 78.18799725 49.88272988 83.71948045 53.19726562 89.28515625 C53.90979492 90.49751953 53.90979492 90.49751953 54.63671875 91.734375 C55.06686279 92.45850586 55.49700684 93.18263672 55.94018555 93.92871094 C56.97732138 95.95567717 57.54804815 97.7762591 58 100 C58.66 100 59.32 100 60 100 C60.3623877 100.6798999 60.72477539 101.3597998 61.09814453 102.06030273 C62.76901409 105.18859797 64.44695296 108.31304937 66.125 111.4375 C66.69476563 112.50677734 67.26453125 113.57605469 67.8515625 114.67773438 C70.89999407 120.34158167 74.05036995 125.80617561 77.73388672 131.08227539 C79.79754719 134.20800871 81 136.19823117 81 140 C81.66 140 82.32 140 83 140 C83.36762451 140.6798999 83.73524902 141.3597998 84.11401367 142.06030273 C85.80464999 145.18631984 87.49606989 148.31191233 89.1875 151.4375 C89.76564453 152.50677734 90.34378906 153.57605469 90.93945312 154.67773438 C97.1492237 166.47142253 97.1492237 166.47142253 104.125 177.8125 C104.84042969 178.87404297 104.84042969 178.87404297 105.5703125 179.95703125 C106.56593096 181.37973195 107.60652733 182.77155919 108.6796875 184.13671875 C110 186 110 186 110 188 C110.66 188 111.32 188 112 188 C113.2265625 189.50390625 113.2265625 189.50390625 114.625 191.5625 C118.70867921 197.19000916 123.64961854 201.57322317 129.5 205.3125 C130.325 205.869375 131.15 206.42625 132 207 C132 207.66 132 208.32 132 209 C132.680625 209.2475 133.36125 209.495 134.0625 209.75 C137.57015334 211.24261844 140.70908054 213.07512258 144 215 C144.66 215.33 145.32 215.66 146 216 C146 216.66 146 217.32 146 218 C146.64066406 218.18175781 147.28132812 218.36351562 147.94140625 218.55078125 C153.14677545 220.06351895 158.0137 221.86301429 163 224 C175.21494064 228.29983024 187.29888854 229.36323944 200.1875 229.3125 C200.86410675 229.31233887 201.5407135 229.31217773 202.23782349 229.31201172 C212.74633776 229.29461943 222.79062385 228.54855155 233 226 C233 229.91331671 232.88383678 230.68867604 230.98828125 233.79296875 C230.34959106 234.85547852 230.34959106 234.85547852 229.69799805 235.93945312 C229.24078369 236.68130859 228.78356934 237.42316406 228.3125 238.1875 C227.38729692 239.72222007 226.46280972 241.25737196 225.5390625 242.79296875 C224.87438965 243.8900415 224.87438965 243.8900415 224.19628906 245.00927734 C222.02851105 248.61663692 220.01286059 252.30485811 218 256 C215.06533553 261.36103738 212.03083217 266.63815822 208.8671875 271.8671875 C205.87234297 276.89201034 202.96125606 281.96521792 200.03979492 287.03295898 C197.63527682 291.19796459 195.20487686 295.33929018 192.6875 299.4375 C190.58630868 302.89332756 188.77218672 306.42701156 187 310.0625 C184.79374701 314.56118773 182.35233427 318.66730144 179.5078125 322.78515625 C175.12104098 329.22893721 171.37853984 335.98303264 168 343 C149.17064467 341.76737855 129.07723011 335.89757789 112 328 C110.71222656 327.43539062 110.71222656 327.43539062 109.3984375 326.859375 C106.57919042 325.61192054 103.78834373 324.31512088 101 323 C100.40703125 322.72317383 99.8140625 322.44634766 99.203125 322.16113281 C89.44710539 317.5756053 80.46669065 312.32417175 71.64355469 306.13085938 C69.978321 304.98508361 68.27796851 303.9092741 66.5703125 302.828125 C65.29800781 301.92320312 65.29800781 301.92320312 64 301 C64 300.34 64 299.68 64 299 C62.96939453 298.67515625 62.96939453 298.67515625 61.91796875 298.34375 C58.15119078 296.60911597 55.40792045 294.22544988 52.3125 291.5 C51.69963135 290.96753662 51.0867627 290.43507324 50.45532227 289.88647461 C45.06067203 285.15268135 39.99387134 280.15467579 35 275 C33.66582031 273.69289063 33.66582031 273.69289063 32.3046875 272.359375 C30.25321283 270.25922127 29.09454745 268.68661646 28 266 C27.34 266 26.68 266 26 266 C24.07908115 263.80932248 22.27929695 261.6136321 20.5 259.3125 C19.75169922 258.37374023 19.75169922 258.37374023 18.98828125 257.41601562 C16.38022695 254.0772866 14.31292126 251.08724891 13 247 C12.34 247 11.68 247 11 247 C9.85839844 245.53808594 9.85839844 245.53808594 8.609375 243.484375 C8.14974365 242.73285156 7.6901123 241.98132813 7.21655273 241.20703125 C6.73259033 240.39621094 6.24862793 239.58539063 5.75 238.75 C5.25636963 237.93402344 4.76273926 237.11804688 4.25415039 236.27734375 C0.91708516 230.70184913 -2.12352303 225.07437216 -4.87890625 219.1875 C-5.92531935 216.87016536 -5.92531935 216.87016536 -8 215 C-8.71114456 213.13747853 -9.41603735 211.27228166 -10.0859375 209.39453125 C-11.0839866 206.77998382 -12.24350429 204.2808314 -13.4375 201.75 C-16.09155697 195.94425037 -18.16147414 190.11097207 -20 184 C-20.2283252 183.24879883 -20.45665039 182.49759766 -20.69189453 181.72363281 C-22.65171409 175.19430565 -24.39550806 168.62538841 -26 162 C-26.32629395 160.66267822 -26.32629395 160.66267822 -26.65917969 159.29833984 C-30.1814641 144.03604067 -30.36672017 128.83569866 -30.375 113.25 C-30.37699402 112.24759277 -30.37898804 111.24518555 -30.38104248 110.21240234 C-30.37858338 99.29040003 -30.09064917 88.75606968 -28 78 C-27.73348168 76.335601 -27.47265696 74.67027574 -27.21875 73.00390625 C-26.97990408 71.52331835 -26.74034161 70.04284584 -26.5 68.5625 C-26.38269531 67.81291016 -26.26539063 67.06332031 -26.14453125 66.29101562 C-25.44562496 62.01115398 -24.44201015 58.10336711 -23 54 C-22.6060584 52.61828758 -22.22146274 51.23389298 -21.84375 49.84765625 C-19.1725653 40.23746222 -15.97175261 31.03018839 -12 21.875 C-11.59716797 20.94051025 -11.19433594 20.00602051 -10.77929688 19.04321289 C-4.17134606 4.17134606 -4.17134606 4.17134606 0 0 Z " fill="#000000" transform="translate(51,139)"/>
<path d="M0 0 C44.22 0.33 88.44 0.66 134 1 C140.53333333 18.42222222 140.53333333 18.42222222 142 26 C142.30292969 26.85464844 142.60585938 27.70929688 142.91796875 28.58984375 C144.36249024 33.14243313 145.19770008 37.74522058 146.0625 42.4375 C146.23587891 43.35337891 146.40925781 44.26925781 146.58789062 45.21289062 C147.07387796 47.80668509 147.55546108 50.39875839 148 53 C148.18014648 54.02617432 148.36029297 55.05234863 148.54589844 56.10961914 C149.1388737 61.18975938 149.16246009 66.20206198 149.16796875 71.3125 C149.17129715 72.39901855 149.17462555 73.48553711 149.17805481 74.60498047 C149.18310463 76.90120015 149.18546374 79.19742712 149.18530273 81.49365234 C149.1874754 84.96073947 149.20561398 88.4275009 149.22460938 91.89453125 C149.25430336 103.44699854 149.04771123 114.60110542 147 126 C146.86988525 126.81919922 146.73977051 127.63839844 146.60571289 128.48242188 C143.76422253 145.7821405 138.2159363 163.31511038 130.81445312 179.19091797 C129.88820199 181.16689623 129.88820199 181.16689623 129 184 C128.34 184 127.68 184 127 184 C126.83177734 185.08474609 126.83177734 185.08474609 126.66015625 186.19140625 C125.96247912 189.15963026 124.93548938 191.288467 123.4375 193.9375 C122.62345703 195.37996094 122.62345703 195.37996094 121.79296875 196.8515625 C121.20128906 197.89054688 120.60960937 198.92953125 120 200 C119.09701172 201.65128906 119.09701172 201.65128906 118.17578125 203.3359375 C114.62523862 209.74563921 110.85261423 215.88690174 106.625 221.875 C106.19606445 222.48835205 105.76712891 223.1017041 105.32519531 223.73364258 C104.27025991 225.1958605 103.14129386 226.60414246 102 228 C101.34 228 100.68 228 100 228 C99.731875 228.804375 99.46375 229.60875 99.1875 230.4375 C98.795625 231.283125 98.40375 232.12875 98 233 C97.01 233.33 96.02 233.66 95 234 C94.30546568 235.31903157 93.64400744 236.65557572 93 238 C71.86241813 263.78609572 42.65171622 285.01497901 12 298 C11.02289063 298.42023438 10.04578125 298.84046875 9.0390625 299.2734375 C-19.70998001 311.46776144 -48.73553356 317.79598359 -80 317 C-79.35550393 313.98782888 -78.34977818 311.48344164 -76.9375 308.75 C-76.39416016 307.69039063 -76.39416016 307.69039063 -75.83984375 306.609375 C-75.56269531 306.07828125 -75.28554688 305.5471875 -75 305 C-74.34 305 -73.68 305 -73 305 C-72.84132446 304.17338867 -72.84132446 304.17338867 -72.67944336 303.33007812 C-71.85785834 300.51254041 -70.59068886 298.26440293 -69.12890625 295.71875 C-68.55462891 294.71199219 -67.98035156 293.70523437 -67.38867188 292.66796875 C-66.78603516 291.62253906 -66.18339844 290.57710938 -65.5625 289.5 C-64.37550046 287.42754225 -63.18927119 285.3546431 -62.00390625 283.28125 C-61.21222046 281.90549805 -61.21222046 281.90549805 -60.40454102 280.50195312 C-59.20249187 278.36070515 -58.07380275 276.20763776 -57 274 C-56.34 274 -55.68 274 -55 274 C-54.79375 273.236875 -54.5875 272.47375 -54.375 271.6875 C-52.43900742 266.4955199 -49.72672399 261.81350256 -47 257 C-46.5771875 256.25234375 -46.154375 255.5046875 -45.71875 254.734375 C-44.81863431 253.15274315 -43.9104183 251.57572399 -43 250 C-42.34 250 -41.68 250 -41 250 C-40.9175 249.319375 -40.835 248.63875 -40.75 247.9375 C-39.17478941 241.76792518 -34.9184448 236.18036926 -31.625 230.75 C-27.90699935 224.58974579 -24.40521783 218.33894396 -21 212 C-19.16719962 208.6752358 -17.29990669 205.42986626 -15.125 202.3125 C-13.20658921 199.32203612 -11.67565419 196.37764795 -10.125 193.1875 C-7.86089083 188.56803293 -5.35813812 184.36412285 -2.43359375 180.140625 C-0.5261363 177.29243241 1.08923219 174.31973011 2.72265625 171.30859375 C4.06912017 168.8750764 5.49231613 166.5011075 6.9375 164.125 C9.06632513 160.61325521 11.0651716 157.05962 13 153.4375 C14.79632891 150.07813165 16.68106569 147.0019413 18.9375 143.9375 C28.82268541 129.40809362 33.50019464 109.30576049 34 92 C34.07734375 90.31583984 34.07734375 90.31583984 34.15625 88.59765625 C34.35482896 80.97718851 33.7295832 73.66618221 32.6875 66.125 C32.51105957 64.82369141 32.51105957 64.82369141 32.33105469 63.49609375 C31.46981906 57.74277543 30.00289333 52.45556536 28 47 C27.70738281 46.15050781 27.41476562 45.30101562 27.11328125 44.42578125 C23.12103648 33.89014994 17.15334572 23.62573021 10.25 14.75 C9 13 9 13 9 11 C8.01 10.67 7.02 10.34 6 10 C4.64172029 8.35360035 3.30745749 6.68704193 2 5 C1.01 4.505 1.01 4.505 0 4 C0 2.68 0 1.36 0 0 Z " fill="#000000" transform="translate(334,167)"/>
<path d="M0 0 C1.77861013 0.24375028 3.55725765 0.48722776 5.3359375 0.73046875 C7.14089506 0.98507193 8.94558976 1.24154641 10.75 1.5 C11.58450684 1.61835205 12.41901367 1.7367041 13.27880859 1.85864258 C17.72041146 2.52701273 21.75527889 3.48190199 26 5 C27.93270048 5.49817246 29.87040188 5.97732414 31.8125 6.4375 C54.86828513 12.14493701 75.46395639 23.40093833 96 35 C96 35.66 96 36.32 96 37 C97.01126953 37.3403125 97.01126953 37.3403125 98.04296875 37.6875 C101.81938334 39.3636893 104.97093585 41.59104541 108.3125 44 C108.95767578 44.45117188 109.60285156 44.90234375 110.26757812 45.3671875 C111.88501255 46.52420937 113.44793244 47.75666577 115 49 C115 49.66 115 50.32 115 51 C115.81791016 51.34224609 115.81791016 51.34224609 116.65234375 51.69140625 C119.67406226 53.37572522 122.05605362 55.58666267 124.5625 57.9375 C125.34379272 58.66296021 125.34379272 58.66296021 126.14086914 59.40307617 C141.87110862 74.10252538 141.87110862 74.10252538 147 81 C147 81.66 147 82.32 147 83 C147.66 83 148.32 83 149 83 C149.98109963 84.40729775 150.95347184 85.82181801 151.87158203 87.27099609 C153.71055014 90.0887313 155.84943063 92.67797166 157.9375 95.3125 C168 108.1964171 168 108.1964171 168 113 C166.92860999 113.00054477 165.85721998 113.00108953 164.75336361 113.00165081 C138.5913478 113.01609549 112.42949742 113.0593151 86.26757717 113.13209057 C73.61545859 113.16663057 60.96344771 113.19208161 48.3112793 113.19555664 C37.2737713 113.19861188 26.23645568 113.21931066 15.19902188 113.26052457 C9.36371229 113.28171535 3.52867522 113.29452747 -2.30667305 113.28615379 C-7.81847054 113.27852466 -13.32971989 113.29479038 -18.84141731 113.32806015 C-20.84582403 113.33618803 -22.8502864 113.33617091 -24.85468674 113.32659721 C-44.87090523 113.24059128 -64.1991074 116.33551771 -82.1875 125.5 C-83.00605469 125.91636719 -83.82460937 126.33273438 -84.66796875 126.76171875 C-86.80976052 127.89898507 -88.90795882 129.08672846 -91 130.3125 C-94 132 -94 132 -96 132 C-96 132.66 -96 133.32 -96 134 C-97.72265625 135.296875 -97.72265625 135.296875 -100.0625 136.75 C-104.37469775 139.53228144 -108.22077383 142.53650665 -112 146 C-112.804375 146.721875 -113.60875 147.44375 -114.4375 148.1875 C-117.73349616 151.80505676 -120.45098315 155.74645171 -123.23046875 159.76953125 C-123.81441406 160.50558594 -124.39835937 161.24164063 -125 162 C-125.66 162 -126.32 162 -127 162 C-127.26554687 162.72316406 -127.53109375 163.44632813 -127.8046875 164.19140625 C-129.00820163 167.01927115 -130.45808192 169.35959181 -132.125 171.9375 C-137.52799123 180.98040111 -140.61612378 191.06972163 -144 201 C-144.99 201 -145.98 201 -147 201 C-147.28085449 200.4831665 -147.56170898 199.96633301 -147.85107422 199.43383789 C-152.80013008 190.34182999 -157.77296476 181.2743143 -163.0625 172.375 C-166.66072702 166.3133046 -170.18116526 160.213389 -173.625 154.0625 C-174.06336182 153.28632324 -174.50172363 152.51014648 -174.95336914 151.71044922 C-178 146.23646637 -178 146.23646637 -178 144 C-178.66 144 -179.32 144 -180 144 C-180.53625 142.88625 -181.0725 141.7725 -181.625 140.625 C-183.68939815 136.4889347 -186.03213553 132.56979774 -188.4375 128.625 C-189.99173708 126.01388171 -191.44190876 123.36675754 -192.875 120.6875 C-195.14830878 116.46393158 -197.58709182 112.38255275 -200.125 108.3125 C-202.32236242 104.78669413 -204.43761116 101.30144391 -206.25 97.5625 C-207.90959005 93.94231312 -207.90959005 93.94231312 -210.3125 90.75 C-212 88 -212 88 -212 85.9375 C-210.6366443 83.29599833 -209.0060253 81.18839124 -207 79 C-206.34 79 -205.68 79 -205 79 C-204.7525 78.443125 -204.505 77.88625 -204.25 77.3125 C-201.56377828 72.34298983 -197.89943639 68.97333201 -193.609375 65.42578125 C-191.77715824 63.80257951 -190.43970852 61.97012745 -189 60 C-188.34 60 -187.68 60 -187 60 C-187 59.34 -187 58.68 -187 58 C-184.03421769 55.24223849 -180.81617137 52.78819657 -177.63378906 50.28515625 C-176.56252179 49.44248576 -175.49405016 48.59624637 -174.42871094 47.74609375 C-166.29665403 41.25672251 -157.9024065 35.38520309 -149 30 C-148.05833984 29.42934814 -148.05833984 29.42934814 -147.09765625 28.84716797 C-137.10872981 22.8603441 -126.874923 18.14147888 -116 14 C-114.48599609 13.41605469 -114.48599609 13.41605469 -112.94140625 12.8203125 C-76.92830608 -0.66499932 -38.13392228 -5.54033524 0 0 Z " fill="#000000" transform="translate(283,23)"/>
<path d="M0 0 C1.27803764 1.07482476 2.54991857 2.15706057 3.8125 3.25 C4.823125 4.013125 5.83375 4.77625 6.875 5.5625 C7.514375 6.119375 8.15375 6.67625 8.8125 7.25 C8.8125 7.91 8.8125 8.57 8.8125 9.25 C9.37324219 9.46140625 9.93398438 9.6728125 10.51171875 9.890625 C13.59230299 11.7107325 15.49735179 14.19061406 17.625 17 C18.06150879 17.57492188 18.49801758 18.14984375 18.94775391 18.7421875 C33.34400114 38.28259506 37.61272644 61.99804259 34.0625 85.75 C32.87838487 91.7563811 30.90981235 97.50784384 28.8125 103.25 C28.1525 103.25 27.4925 103.25 26.8125 103.25 C26.70679688 103.97058594 26.60109375 104.69117188 26.4921875 105.43359375 C23.46023119 117.99704491 8.95861888 131.91666655 -1.1875 139.25 C-3.44140625 139.95703125 -3.44140625 139.95703125 -5.1875 140.25 C-5.1875 140.91 -5.1875 141.57 -5.1875 142.25 C-20.32053762 149.61474497 -32.85942563 153.42862385 -49.875 153.4375 C-51.09123047 153.44974609 -52.30746094 153.46199219 -53.56054688 153.47460938 C-75.36846238 153.50972679 -93.21956607 145.39526418 -108.953125 130.484375 C-126.05471587 113.38278413 -134.88065631 93.28364498 -135.4375 69.1875 C-135.2980046 51.80288589 -130.52771712 35.34462523 -120.3125 21.1875 C-119.89097656 20.58873047 -119.46945313 19.98996094 -119.03515625 19.37304688 C-116.36711822 15.64840051 -113.51565223 12.42231902 -110.1875 9.25 C-109.3625 8.404375 -108.5375 7.55875 -107.6875 6.6875 C-105.29210222 4.35198717 -102.83005661 2.29798137 -100.1875 0.25 C-99.465625 -0.389375 -98.74375 -1.02875 -98 -1.6875 C-69.69294766 -22.44600505 -27.5357537 -21.19888323 0 0 Z " fill="#000000" transform="translate(302.1875,183.75)"/>
</svg>
