<?xml version="1.0" encoding="UTF-8"?>
<svg id="Layer_2" data-name="Layer 2" xmlns="http://www.w3.org/2000/svg" viewBox="0 0 315.1 124.97">
  <defs>
    <style>
      .cls-1 {
        fill: #231f20;
      }

      .cls-2 {
        fill: #d21f30;
      }
    </style>
  </defs>
  <g id="Layer_1-2" data-name="Layer 1">
    <g>
      <g>
        <path class="cls-1" d="M16.6,23.9v43.3c0,2.8.58,4.7,1.75,5.7,1.17,1,3.12,1.5,5.85,1.5v2.1c-1.13-.07-2.85-.15-5.15-.25-2.3-.1-4.62-.15-6.95-.15s-4.57.05-6.9.15c-2.33.1-4.07.18-5.2.25v-2.1c2.73,0,4.68-.5,5.85-1.5,1.17-1,1.75-2.9,1.75-5.7v-31.3c0-3-.53-5.22-1.6-6.65-1.07-1.43-3.07-2.15-6-2.15v-2.1c2.13.2,4.2.3,6.2.3s3.78-.12,5.55-.35c1.77-.23,3.38-.58,4.85-1.05ZM11.4,0c1.73,0,3.23.63,4.5,1.9,1.27,1.27,1.9,2.77,1.9,4.5s-.63,3.23-1.9,4.5-2.77,1.9-4.5,1.9-3.23-.63-4.5-1.9c-1.27-1.27-1.9-2.77-1.9-4.5s.63-3.23,1.9-4.5,2.77-1.9,4.5-1.9Z"/>
        <path class="cls-1" d="M62.9,23.6c2.53,0,4.65.33,6.35,1,1.7.67,3.12,1.6,4.25,2.8,1.27,1.33,2.17,3,2.7,5,.53,2,.8,4.7.8,8.1v26.7c0,2.8.58,4.7,1.75,5.7,1.17,1,3.12,1.5,5.85,1.5v2.1c-1.13-.07-2.87-.15-5.2-.25-2.33-.1-4.6-.15-6.8-.15s-4.35.05-6.45.15c-2.1.1-3.68.18-4.75.25v-2.1c2.4,0,4.1-.5,5.1-1.5s1.5-2.9,1.5-5.7v-28.9c0-2.07-.17-3.97-.5-5.7-.33-1.73-1.08-3.13-2.25-4.2-1.17-1.07-2.95-1.6-5.35-1.6-2.8,0-5.25.8-7.35,2.4-2.1,1.6-3.73,3.78-4.9,6.55-1.17,2.77-1.75,5.85-1.75,9.25v22.2c0,2.8.5,4.7,1.5,5.7s2.7,1.5,5.1,1.5v2.1c-1.07-.07-2.65-.15-4.75-.25s-4.25-.15-6.45-.15-4.47.05-6.8.15c-2.33.1-4.07.18-5.2.25v-2.1c2.73,0,4.68-.5,5.85-1.5,1.17-1,1.75-2.9,1.75-5.7v-31.3c0-3-.53-5.22-1.6-6.65-1.07-1.43-3.07-2.15-6-2.15v-2.1c2.13.2,4.2.3,6.2.3s3.78-.12,5.55-.35c1.77-.23,3.38-.58,4.85-1.05v11.8c1.73-4.53,4.15-7.68,7.25-9.45,3.1-1.77,6.35-2.65,9.75-2.65Z"/>
        <path class="cls-1" d="M133.8,25v2c-1.27.13-2.43.7-3.5,1.7-1.07,1-2.07,2.77-3,5.3l-16.4,43h-1.7l-18.4-44.3c-1.07-2.6-2.12-4.18-3.15-4.75-1.03-.57-1.92-.85-2.65-.85v-2.1c1.33.07,2.72.15,4.15.25,1.43.1,2.98.15,4.65.15,2.07,0,4.25-.03,6.55-.1,2.3-.07,4.45-.17,6.45-.3v2.1c-1.67,0-3.15.12-4.45.35-1.3.23-2.13.88-2.5,1.95-.37,1.07-.05,2.9.95,5.5l12.5,30.9-.6.5,11.4-29.9c.87-2.2,1.22-3.95,1.05-5.25-.17-1.3-.83-2.28-2-2.95-1.17-.67-2.95-1.07-5.35-1.2v-2c1.2.07,2.23.12,3.1.15.87.03,1.72.07,2.55.1.83.03,1.75.05,2.75.05,1.53,0,2.92-.03,4.15-.1,1.23-.07,2.38-.13,3.45-.2Z"/>
        <path class="cls-1" d="M160.6,23.6c4.27,0,8.1.93,11.5,2.8,3.4,1.87,6.12,4.8,8.15,8.8,2.03,4,3.05,9.2,3.05,15.6s-1.02,11.58-3.05,15.55c-2.04,3.97-4.75,6.88-8.15,8.75s-7.23,2.8-11.5,2.8-8.02-.93-11.45-2.8c-3.43-1.87-6.17-4.78-8.2-8.75-2.03-3.97-3.05-9.15-3.05-15.55s1.02-11.6,3.05-15.6c2.03-4,4.77-6.93,8.2-8.8,3.43-1.87,7.25-2.8,11.45-2.8ZM160.6,25.6c-3.8,0-6.92,1.97-9.35,5.9-2.43,3.93-3.65,10.37-3.65,19.3s1.22,15.35,3.65,19.25c2.43,3.9,5.55,5.85,9.35,5.85s6.92-1.95,9.35-5.85c2.43-3.9,3.65-10.32,3.65-19.25s-1.22-15.37-3.65-19.3c-2.43-3.93-5.55-5.9-9.35-5.9Z"/>
        <path class="cls-1" d="M207.5,23.9v43.3c0,2.8.58,4.7,1.75,5.7,1.17,1,3.12,1.5,5.85,1.5v2.1c-1.13-.07-2.85-.15-5.15-.25s-4.62-.15-6.95-.15-4.57.05-6.9.15c-2.33.1-4.07.18-5.2.25v-2.1c2.73,0,4.68-.5,5.85-1.5,1.17-1,1.75-2.9,1.75-5.7v-31.3c0-3-.53-5.22-1.6-6.65-1.07-1.43-3.07-2.15-6-2.15v-2.1c2.13.2,4.2.3,6.2.3s3.78-.12,5.55-.35c1.77-.23,3.38-.58,4.85-1.05ZM202.3,0c1.73,0,3.23.63,4.5,1.9,1.27,1.27,1.9,2.77,1.9,4.5s-.63,3.23-1.9,4.5c-1.27,1.27-2.77,1.9-4.5,1.9s-3.23-.63-4.5-1.9c-1.27-1.27-1.9-2.77-1.9-4.5s.63-3.23,1.9-4.5c1.27-1.27,2.77-1.9,4.5-1.9Z"/>
        <path class="cls-1" d="M245.2,23.6c2.13,0,4.2.27,6.2.8,2,.53,3.8,1.33,5.4,2.4,1.53,1,2.7,2.15,3.5,3.45s1.2,2.72,1.2,4.25c0,1.8-.5,3.18-1.5,4.15-1,.97-2.27,1.45-3.8,1.45s-2.75-.43-3.85-1.3c-1.1-.87-1.65-2.1-1.65-3.7s.42-2.77,1.25-3.7c.83-.93,1.82-1.53,2.95-1.8-.67-1.2-1.85-2.2-3.55-3-1.7-.8-3.52-1.2-5.45-1.2-1.67,0-3.33.4-5,1.2-1.67.8-3.2,2.12-4.6,3.95-1.4,1.83-2.53,4.33-3.4,7.5-.87,3.17-1.3,7.12-1.3,11.85,0,5.87.67,10.53,2,14,1.33,3.47,3.08,5.95,5.25,7.45,2.17,1.5,4.55,2.25,7.15,2.25,1.73,0,3.5-.33,5.3-1,1.8-.67,3.5-1.75,5.1-3.25,1.6-1.5,2.97-3.52,4.1-6.05l1.9.7c-.67,2.13-1.77,4.28-3.3,6.45-1.53,2.17-3.53,3.95-6,5.35-2.47,1.4-5.5,2.1-9.1,2.1-4.13,0-7.87-1.07-11.2-3.2-3.33-2.13-5.98-5.18-7.95-9.15-1.97-3.97-2.95-8.68-2.95-14.15s.98-10.28,2.95-14.45c1.97-4.17,4.72-7.43,8.25-9.8,3.53-2.37,7.57-3.55,12.1-3.55Z"/>
        <path class="cls-1" d="M293.1,23.6c5.87,0,10.45,1.78,13.75,5.35,3.3,3.57,4.95,9.12,4.95,16.65h-35.3l-.1-1.9h25.8c.13-3.27-.13-6.28-.8-9.05-.67-2.77-1.72-4.98-3.15-6.65-1.43-1.67-3.28-2.5-5.55-2.5-3.07,0-5.78,1.53-8.15,4.6-2.37,3.07-3.79,7.93-4.25,14.6l.3.4c-.13,1-.23,2.1-.3,3.3-.07,1.2-.1,2.4-.1,3.6,0,4.53.73,8.43,2.2,11.7,1.47,3.27,3.38,5.75,5.75,7.45,2.37,1.7,4.82,2.55,7.35,2.55,2,0,3.9-.32,5.7-.95,1.8-.63,3.47-1.68,5-3.15,1.53-1.47,2.87-3.43,4-5.9l2,.8c-.73,2.2-1.93,4.33-3.6,6.4-1.67,2.07-3.77,3.75-6.3,5.05-2.54,1.3-5.47,1.95-8.8,1.95-4.8,0-8.92-1.1-12.35-3.3-3.43-2.2-6.07-5.25-7.9-9.15-1.83-3.9-2.75-8.38-2.75-13.45,0-5.87.93-10.92,2.8-15.15,1.87-4.23,4.5-7.5,7.9-9.8,3.4-2.3,7.37-3.45,11.9-3.45Z"/>
      </g>
      <g>
        <path class="cls-1" d="M71.03,105.55v14.62c-.17.15-.35.3-.53.45s-.36.3-.53.45c-.17.15-.35.3-.54.46l-.34-.14c.05-.19.09-.38.11-.57.02-.19.03-.39.03-.59v-12.28c0-.6-.11-1.04-.32-1.33-.21-.29-.61-.43-1.2-.43v-.42c.43.04.84.06,1.24.06s.76-.02,1.11-.07c.35-.05.68-.12.97-.21ZM74.15,110.63c1.09,0,2,.45,2.72,1.35s1.08,2.26,1.08,4.09c0,1.2-.2,2.2-.61,3.01-.41.81-.95,1.41-1.63,1.81-.68.4-1.42.6-2.22.6-.67,0-1.31-.19-1.93-.57-.62-.38-1.08-.94-1.39-1.69l.4.22c.33.53.75.93,1.24,1.19.49.26,1,.39,1.52.39.89,0,1.56-.4,2.01-1.21.45-.81.67-2.06.67-3.75,0-1.08-.09-1.98-.26-2.7-.17-.72-.44-1.26-.8-1.61-.36-.35-.82-.53-1.38-.53-.61,0-1.18.28-1.71.83-.53.55-.85,1.36-.97,2.43l-.24-.28c.15-1.13.54-2.01,1.19-2.64.65-.63,1.42-.94,2.31-.94Z"/>
        <path class="cls-1" d="M88.59,110.91v.4c-.25.03-.49.14-.7.34-.21.2-.41.55-.6,1.06l-3.28,8.6h-.34l-3.68-8.86c-.25-.52-.5-.84-.75-.95-.25-.11-.45-.17-.61-.17v-.42c.29.04.6.07.92.09.32.02.67.03,1.04.03.41,0,.85-.01,1.31-.04.46-.03.89-.05,1.29-.08v.42c-.33,0-.63.02-.89.07-.26.05-.42.19-.49.42-.07.23.01.63.24,1.19l2.46,6.1-.12.04,2.28-5.96c.17-.44.24-.79.21-1.05-.03-.26-.17-.46-.41-.59-.24-.13-.6-.21-1.08-.24v-.4c.24.01.45.02.62.03.17,0,.34.01.51.02.17,0,.35,0,.55,0,.31,0,.58,0,.83-.02.25-.01.48-.03.69-.04ZM84.01,121.31l-.68,1.74c-.13.33-.27.61-.41.84-.14.23-.29.41-.45.56-.21.2-.47.34-.76.41s-.56.11-.8.11c-.25,0-.48-.05-.69-.14-.21-.09-.37-.23-.49-.41s-.18-.4-.18-.65c0-.32.09-.58.28-.77.19-.19.45-.29.78-.29.28,0,.52.08.72.24.2.16.3.39.3.7,0,.23-.05.41-.16.56-.11.15-.23.26-.38.34.03.01.05.02.07.02h.05c.36,0,.68-.12.96-.37.28-.25.53-.64.74-1.19l.72-1.86.38.16Z"/>
      </g>
      <g>
        <path class="cls-2" d="M155.93,93.35c1.46.17,3.28.95,4.18,2.16l11.4,29.23h-5.87l-9.53-24.79c-.68-1.35-2.5-1.22-3.11.14l-9.9,24.65h-5.87l11.17-28.03c.84-1.82,2.91-3.09,4.89-3.36.61-.08,2.01-.07,2.64,0Z"/>
        <path class="cls-2" d="M273.99,94.06c9.58,1.29,9.77,15.9.84,18.42l7.19,12.25h-5.87l-7.19-11.89h-8.39l-.36.36v11.17l-.36.36h-5.15v-14.15c0-1.46,2.21-2.72,3.54-2.91,4.33-.62,9.72.43,14.08-.06,3.33-.38,4.59-4.43,2.64-6.9-.45-.58-1.69-1.42-2.4-1.42h-17.86v-5.23h19.3Z"/>
        <path class="cls-2" d="M212.14,93.59c3.09.26,6.83,1.47,8.21,4.46,1.68,3.66.96,9.26-3.29,10.76,3.55,2.19,4.86,5.44,3.97,9.52-.64,2.96-4.14,5.93-7.2,5.93h-13.06v-5.23h11.39c.13,0,1.35-.46,1.57-.58,2.06-1.08,2.63-4.14,1.04-5.82-.33-.34-2.02-1.21-2.37-1.21h-11.63v-4.64l.36-.36h11.51c.09,0,1.46-.62,1.64-.75,1.57-1.1,1.53-4.3.17-5.56-.36-.34-1.88-1.06-2.29-1.06h-11.39v-5.11l.36-.36c3.58.22,7.49-.3,11.03,0Z"/>
        <path class="cls-2" d="M247.74,94.06v5.23h-10.91c-.14,0-1.42.39-1.66.5-2.45,1.1-2.89,4.78-.61,6.27.47.31,2.26.84,2.74.84h10.43v4.76h-11.15c-.39,0-2.16.72-2.53,1.06-1.8,1.63-1.35,4.99.88,6.05.2.09,1.32.5,1.41.5h11.39v5.47h-11.63c-1.67,0-4.66-1.09-5.99-2.15-4.08-3.23-3.85-11.13,1.31-13.07.05-.31.06-.3-.15-.49-.48-.42-1.46-.77-2.01-1.35-2.74-2.92-2.39-9.03.74-11.56.88-.71,3.84-2.04,4.89-2.04h12.82Z"/>
        <path class="cls-2" d="M176.07,124.73v-5.47h8.03c1.97,0,4.67-1.75,5.59-3.49,2.75-5.2,1.77-16.48-6.07-16.48h-7.55v-5.23h9.47c1.17,0,4.31,1.36,5.37,2.04,6.12,3.96,6.6,15.26,4.06,21.34-3.31,7.95-11.53,7.37-18.9,7.29Z"/>
        <path class="cls-2" d="M134.84,94.06v21.52c0,5.47-5.6,9.15-10.67,9.15h-11.39v-5.47h11.87c.47,0,2.4-.84,2.87-1.19.7-.52,1.8-2.13,1.8-2.97v-21.04h5.51Z"/>
        <path class="cls-2" d="M315.1,94.06l-10.89,15.47c-.36.63-1.34,2.59-1.34,3.19v12.01h-5.51v-12.01c0-.31.8-2.38,1-2.81l10.26-15.85h6.47Z"/>
        <path class="cls-2" d="M285.14,94.06h6.35l6.8,10.4c.1.71-2.26,3.5-2.72,4.34l-10.43-14.74Z"/>
      </g>
    </g>
  </g>
</svg>